<mxfile host="app.diagrams.net" modified="2023-06-28T06:02:31.403Z" agent="Mozilla/5.0 (X11; Linux x86_64) AppleWebKit/537.36 (KHTML, like Gecko) Chrome/113.0.0.0 Safari/537.36" version="21.5.1" etag="D4SbQ5OyRV5TKavaN0nA" type="github">
  <diagram name="第 1 页" id="AsLUD3qf5I4i9T3GHHYG">
    <mxGraphModel>
      <root>
        <mxCell id="0" />
        <mxCell id="1" parent="0" />
      </root>
    </mxGraphModel>
  </diagram>
</mxfile>
